<svg width="190" height="41" viewBox="0 0 190 41" fill="none" xmlns="http://www.w3.org/2000/svg">
<path d="M8.568 35.1053C7.048 35.1053 5.744 34.8573 4.656 34.3613C3.584 33.8653 2.744 33.1373 2.136 32.1773C1.544 31.2173 1.216 30.0253 1.152 28.6013C1.136 27.9453 1.128 27.2413 1.128 26.4893C1.128 25.7373 1.136 25.0173 1.152 24.3293C1.216 22.9373 1.552 21.7613 2.16 20.8013C2.768 19.8253 3.616 19.0893 4.704 18.5933C5.792 18.0813 7.08 17.8253 8.568 17.8253C9.624 17.8253 10.6 17.9613 11.496 18.2333C12.392 18.4893 13.176 18.8733 13.848 19.3853C14.52 19.8813 15.04 20.4893 15.408 21.2093C15.792 21.9133 15.992 22.7133 16.008 23.6093C16.024 23.7533 15.976 23.8733 15.864 23.9693C15.768 24.0653 15.648 24.1133 15.504 24.1133H12.264C12.056 24.1133 11.896 24.0733 11.784 23.9933C11.672 23.8973 11.576 23.7293 11.496 23.4893C11.272 22.6413 10.904 22.0653 10.392 21.7613C9.896 21.4413 9.28 21.2813 8.544 21.2813C7.664 21.2813 6.968 21.5293 6.456 22.0253C5.944 22.5053 5.664 23.3133 5.616 24.4493C5.568 25.7613 5.568 27.1053 5.616 28.4813C5.664 29.6173 5.944 30.4333 6.456 30.9293C6.968 31.4093 7.664 31.6493 8.544 31.6493C9.28 31.6493 9.904 31.4893 10.416 31.1693C10.928 30.8493 11.288 30.2733 11.496 29.4413C11.56 29.2013 11.648 29.0413 11.76 28.9613C11.888 28.8653 12.056 28.8173 12.264 28.8173H15.504C15.648 28.8173 15.768 28.8653 15.864 28.9613C15.976 29.0573 16.024 29.1773 16.008 29.3213C15.992 30.2173 15.792 31.0253 15.408 31.7453C15.04 32.4493 14.52 33.0573 13.848 33.5693C13.176 34.0653 12.392 34.4493 11.496 34.7213C10.6 34.9773 9.624 35.1053 8.568 35.1053ZM22.0116 35.1053C21.1476 35.1053 20.3716 34.9453 19.6836 34.6253C19.0116 34.2893 18.4756 33.8413 18.0756 33.2813C17.6756 32.7213 17.4756 32.0893 17.4756 31.3853C17.4756 30.2493 17.9396 29.3533 18.8676 28.6973C19.7956 28.0253 21.0276 27.5693 22.5636 27.3293L25.5636 26.8733V26.5373C25.5636 25.9613 25.4436 25.5213 25.2036 25.2173C24.9636 24.9133 24.5236 24.7613 23.8836 24.7613C23.4356 24.7613 23.0676 24.8493 22.7796 25.0253C22.5076 25.2013 22.2916 25.4413 22.1316 25.7453C21.9876 25.9533 21.7876 26.0573 21.5316 26.0573H18.8436C18.6676 26.0573 18.5316 26.0093 18.4356 25.9133C18.3396 25.8013 18.2996 25.6733 18.3156 25.5293C18.3156 25.2413 18.4196 24.9133 18.6276 24.5453C18.8516 24.1613 19.1876 23.7853 19.6356 23.4173C20.0836 23.0493 20.6596 22.7453 21.3636 22.5053C22.0676 22.2653 22.9156 22.1453 23.9076 22.1453C24.9476 22.1453 25.8356 22.2653 26.5716 22.5053C27.3076 22.7453 27.8996 23.0813 28.3476 23.5133C28.8116 23.9453 29.1556 24.4573 29.3796 25.0493C29.6036 25.6253 29.7156 26.2653 29.7156 26.9693V34.2653C29.7156 34.4413 29.6516 34.5853 29.5236 34.6973C29.4116 34.8093 29.2756 34.8653 29.1156 34.8653H26.3316C26.1556 34.8653 26.0116 34.8093 25.8996 34.6973C25.7876 34.5853 25.7316 34.4413 25.7316 34.2653V33.4253C25.5236 33.7293 25.2436 34.0093 24.8916 34.2653C24.5396 34.5213 24.1236 34.7213 23.6436 34.8653C23.1796 35.0253 22.6356 35.1053 22.0116 35.1053ZM23.1396 32.3693C23.6036 32.3693 24.0196 32.2733 24.3876 32.0813C24.7716 31.8733 25.0676 31.5613 25.2756 31.1453C25.4996 30.7133 25.6116 30.1773 25.6116 29.5373V29.2013L23.5716 29.5613C22.8196 29.6893 22.2676 29.8893 21.9156 30.1613C21.5796 30.4173 21.4116 30.7213 21.4116 31.0733C21.4116 31.3453 21.4916 31.5773 21.6516 31.7693C21.8116 31.9613 22.0196 32.1133 22.2756 32.2253C22.5316 32.3213 22.8196 32.3693 23.1396 32.3693ZM33.0238 34.8653C32.8478 34.8653 32.7038 34.8093 32.5918 34.6973C32.4798 34.5853 32.4238 34.4413 32.4238 34.2653V22.9853C32.4238 22.8253 32.4798 22.6893 32.5918 22.5773C32.7038 22.4493 32.8478 22.3853 33.0238 22.3853H35.7838C35.9598 22.3853 36.1038 22.4493 36.2158 22.5773C36.3278 22.6893 36.3838 22.8253 36.3838 22.9853V23.9453C36.8158 23.4493 37.3278 23.0653 37.9198 22.7933C38.5278 22.5213 39.2078 22.3853 39.9598 22.3853H41.0158C41.1758 22.3853 41.3118 22.4413 41.4238 22.5533C41.5518 22.6653 41.6158 22.8093 41.6158 22.9853V25.4573C41.6158 25.6173 41.5518 25.7613 41.4238 25.8893C41.3118 26.0013 41.1758 26.0573 41.0158 26.0573H38.6878C38.0318 26.0573 37.5198 26.2413 37.1518 26.6093C36.7998 26.9613 36.6238 27.4653 36.6238 28.1213V34.2653C36.6238 34.4413 36.5598 34.5853 36.4318 34.6973C36.3198 34.8093 36.1758 34.8653 35.9998 34.8653H33.0238ZM48.9885 35.1053C47.1005 35.1053 45.5965 34.5933 44.4765 33.5693C43.3565 32.5453 42.7725 31.0253 42.7245 29.0093C42.7245 28.8973 42.7245 28.7533 42.7245 28.5773C42.7245 28.4013 42.7245 28.2653 42.7245 28.1693C42.7725 26.9053 43.0525 25.8253 43.5645 24.9293C44.0925 24.0173 44.8125 23.3293 45.7245 22.8653C46.6525 22.3853 47.7325 22.1453 48.9645 22.1453C50.3725 22.1453 51.5325 22.4253 52.4445 22.9853C53.3725 23.5453 54.0685 24.3053 54.5325 25.2653C54.9965 26.2253 55.2285 27.3213 55.2285 28.5533V29.1293C55.2285 29.3053 55.1645 29.4493 55.0365 29.5613C54.9245 29.6733 54.7885 29.7293 54.6285 29.7293H46.9485C46.9485 29.7453 46.9485 29.7693 46.9485 29.8013C46.9485 29.8333 46.9485 29.8653 46.9485 29.8973C46.9645 30.3613 47.0445 30.7853 47.1885 31.1693C47.3325 31.5533 47.5565 31.8573 47.8605 32.0813C48.1645 32.3053 48.5325 32.4173 48.9645 32.4173C49.2845 32.4173 49.5485 32.3693 49.7565 32.2733C49.9805 32.1613 50.1645 32.0413 50.3085 31.9133C50.4525 31.7693 50.5645 31.6493 50.6445 31.5533C50.7885 31.3933 50.9005 31.2973 50.9805 31.2653C51.0765 31.2173 51.2205 31.1933 51.4125 31.1933H54.3885C54.5485 31.1933 54.6765 31.2413 54.7725 31.3373C54.8845 31.4173 54.9325 31.5373 54.9165 31.6973C54.9005 31.9693 54.7645 32.2973 54.5085 32.6813C54.2525 33.0653 53.8765 33.4493 53.3805 33.8333C52.9005 34.2013 52.2925 34.5053 51.5565 34.7453C50.8205 34.9853 49.9645 35.1053 48.9885 35.1053ZM46.9485 27.3533H51.0045V27.3053C51.0045 26.7933 50.9245 26.3453 50.7645 25.9613C50.6205 25.5773 50.3885 25.2813 50.0685 25.0733C49.7645 24.8653 49.3965 24.7613 48.9645 24.7613C48.5325 24.7613 48.1645 24.8653 47.8605 25.0733C47.5725 25.2813 47.3485 25.5773 47.1885 25.9613C47.0285 26.3453 46.9485 26.7933 46.9485 27.3053V27.3533ZM63.2385 35.1053C61.3505 35.1053 59.8465 34.5933 58.7265 33.5693C57.6065 32.5453 57.0225 31.0253 56.9745 29.0093C56.9745 28.8973 56.9745 28.7533 56.9745 28.5773C56.9745 28.4013 56.9745 28.2653 56.9745 28.1693C57.0225 26.9053 57.3025 25.8253 57.8145 24.9293C58.3425 24.0173 59.0625 23.3293 59.9745 22.8653C60.9025 22.3853 61.9825 22.1453 63.2145 22.1453C64.6225 22.1453 65.7825 22.4253 66.6945 22.9853C67.6225 23.5453 68.3185 24.3053 68.7825 25.2653C69.2465 26.2253 69.4785 27.3213 69.4785 28.5533V29.1293C69.4785 29.3053 69.4145 29.4493 69.2865 29.5613C69.1745 29.6733 69.0385 29.7293 68.8785 29.7293H61.1985C61.1985 29.7453 61.1985 29.7693 61.1985 29.8013C61.1985 29.8333 61.1985 29.8653 61.1985 29.8973C61.2145 30.3613 61.2945 30.7853 61.4385 31.1693C61.5825 31.5533 61.8065 31.8573 62.1105 32.0813C62.4145 32.3053 62.7825 32.4173 63.2145 32.4173C63.5345 32.4173 63.7985 32.3693 64.0065 32.2733C64.2305 32.1613 64.4145 32.0413 64.5585 31.9133C64.7025 31.7693 64.8145 31.6493 64.8945 31.5533C65.0385 31.3933 65.1505 31.2973 65.2305 31.2653C65.3265 31.2173 65.4705 31.1933 65.6625 31.1933H68.6385C68.7985 31.1933 68.9265 31.2413 69.0225 31.3373C69.1345 31.4173 69.1825 31.5373 69.1665 31.6973C69.1505 31.9693 69.0145 32.2973 68.7585 32.6813C68.5025 33.0653 68.1265 33.4493 67.6305 33.8333C67.1505 34.2013 66.5425 34.5053 65.8065 34.7453C65.0705 34.9853 64.2145 35.1053 63.2385 35.1053ZM61.1985 27.3533H65.2545V27.3053C65.2545 26.7933 65.1745 26.3453 65.0145 25.9613C64.8705 25.5773 64.6385 25.2813 64.3185 25.0733C64.0145 24.8653 63.6465 24.7613 63.2145 24.7613C62.7825 24.7613 62.4145 24.8653 62.1105 25.0733C61.8225 25.2813 61.5985 25.5773 61.4385 25.9613C61.2785 26.3453 61.1985 26.7933 61.1985 27.3053V27.3533ZM72.3285 34.8653C72.1525 34.8653 72.0085 34.8093 71.8965 34.6973C71.7845 34.5853 71.7285 34.4413 71.7285 34.2653V22.9853C71.7285 22.8253 71.7845 22.6893 71.8965 22.5773C72.0085 22.4493 72.1525 22.3853 72.3285 22.3853H75.0885C75.2645 22.3853 75.4085 22.4493 75.5205 22.5773C75.6325 22.6893 75.6885 22.8253 75.6885 22.9853V23.9453C76.1205 23.4493 76.6325 23.0653 77.2245 22.7933C77.8325 22.5213 78.5125 22.3853 79.2645 22.3853H80.3205C80.4805 22.3853 80.6165 22.4413 80.7285 22.5533C80.8565 22.6653 80.9205 22.8093 80.9205 22.9853V25.4573C80.9205 25.6173 80.8565 25.7613 80.7285 25.8893C80.6165 26.0013 80.4805 26.0573 80.3205 26.0573H77.9925C77.3365 26.0573 76.8245 26.2413 76.4565 26.6093C76.1045 26.9613 75.9285 27.4653 75.9285 28.1213V34.2653C75.9285 34.4413 75.8645 34.5853 75.7365 34.6973C75.6245 34.8093 75.4805 34.8653 75.3045 34.8653H72.3285ZM83.4909 34.8653C83.3149 34.8653 83.1709 34.8093 83.0589 34.6973C82.9469 34.5853 82.8909 34.4413 82.8909 34.2653V18.6653C82.8909 18.4893 82.9469 18.3453 83.0589 18.2333C83.1709 18.1213 83.3149 18.0653 83.4909 18.0653H90.8109C92.1869 18.0653 93.3149 18.2573 94.1949 18.6413C95.0749 19.0253 95.7229 19.5773 96.1389 20.2973C96.5709 21.0013 96.7869 21.8413 96.7869 22.8173C96.7869 23.3933 96.6749 23.9053 96.4509 24.3533C96.2429 24.7853 95.9789 25.1453 95.6589 25.4333C95.3549 25.7213 95.0669 25.9293 94.7949 26.0573C95.4029 26.3453 95.9389 26.8173 96.4029 27.4733C96.8829 28.1293 97.1229 28.8973 97.1229 29.7773C97.1229 30.8333 96.8829 31.7453 96.4029 32.5133C95.9389 33.2653 95.2509 33.8493 94.3389 34.2653C93.4429 34.6653 92.3389 34.8653 91.0269 34.8653H83.4909ZM87.1869 31.7453H90.5469C91.2349 31.7453 91.7549 31.5453 92.1069 31.1453C92.4589 30.7453 92.6349 30.2893 92.6349 29.7773C92.6349 29.2173 92.4509 28.7453 92.0829 28.3613C91.7309 27.9773 91.2189 27.7853 90.5469 27.7853H87.1869V31.7453ZM87.1869 24.7373H90.3309C90.9869 24.7373 91.4749 24.5693 91.7949 24.2333C92.1309 23.8973 92.2989 23.4653 92.2989 22.9373C92.2989 22.4253 92.1309 22.0093 91.7949 21.6893C91.4749 21.3533 90.9869 21.1853 90.3309 21.1853H87.1869V24.7373ZM100.125 34.8653C99.9494 34.8653 99.8054 34.8093 99.6934 34.6973C99.5814 34.5853 99.5254 34.4413 99.5254 34.2653V22.9853C99.5254 22.8253 99.5814 22.6893 99.6934 22.5773C99.8054 22.4493 99.9494 22.3853 100.125 22.3853H102.885C103.061 22.3853 103.205 22.4493 103.317 22.5773C103.429 22.6893 103.485 22.8253 103.485 22.9853V23.9453C103.917 23.4493 104.429 23.0653 105.021 22.7933C105.629 22.5213 106.309 22.3853 107.061 22.3853H108.117C108.277 22.3853 108.413 22.4413 108.525 22.5533C108.653 22.6653 108.717 22.8093 108.717 22.9853V25.4573C108.717 25.6173 108.653 25.7613 108.525 25.8893C108.413 26.0013 108.277 26.0573 108.117 26.0573H105.789C105.133 26.0573 104.621 26.2413 104.253 26.6093C103.901 26.9613 103.725 27.4653 103.725 28.1213V34.2653C103.725 34.4413 103.661 34.5853 103.533 34.6973C103.421 34.8093 103.277 34.8653 103.101 34.8653H100.125ZM111.024 34.8653C110.848 34.8653 110.704 34.8093 110.592 34.6973C110.48 34.5853 110.424 34.4413 110.424 34.2653V22.9853C110.424 22.8093 110.48 22.6653 110.592 22.5533C110.704 22.4413 110.848 22.3853 111.024 22.3853H113.856C114.016 22.3853 114.152 22.4413 114.264 22.5533C114.392 22.6653 114.456 22.8093 114.456 22.9853V34.2653C114.456 34.4413 114.392 34.5853 114.264 34.6973C114.152 34.8093 114.016 34.8653 113.856 34.8653H111.024ZM111 20.5853C110.824 20.5853 110.68 20.5293 110.568 20.4173C110.456 20.3053 110.4 20.1613 110.4 19.9853V17.8493C110.4 17.6733 110.456 17.5293 110.568 17.4173C110.68 17.2893 110.824 17.2253 111 17.2253H113.856C114.032 17.2253 114.176 17.2893 114.288 17.4173C114.416 17.5293 114.48 17.6733 114.48 17.8493V19.9853C114.48 20.1613 114.416 20.3053 114.288 20.4173C114.176 20.5293 114.032 20.5853 113.856 20.5853H111ZM121.924 35.1053C121.156 35.1053 120.46 34.9853 119.836 34.7453C119.228 34.4893 118.7 34.1213 118.252 33.6413C117.82 33.1453 117.484 32.5533 117.244 31.8653C117.004 31.1613 116.868 30.3613 116.836 29.4653C116.82 29.1453 116.812 28.8653 116.812 28.6253C116.812 28.3693 116.82 28.0893 116.836 27.7853C116.868 26.9213 117.004 26.1453 117.244 25.4573C117.484 24.7693 117.82 24.1773 118.252 23.6813C118.684 23.1853 119.212 22.8093 119.836 22.5533C120.46 22.2813 121.156 22.1453 121.924 22.1453C122.724 22.1453 123.412 22.2813 123.988 22.5533C124.564 22.8093 125.052 23.1453 125.452 23.5613V18.4253C125.452 18.2493 125.508 18.1053 125.62 17.9933C125.732 17.8813 125.876 17.8253 126.052 17.8253H128.98C129.14 17.8253 129.276 17.8813 129.388 17.9933C129.516 18.1053 129.58 18.2493 129.58 18.4253V34.2653C129.58 34.4413 129.516 34.5853 129.388 34.6973C129.276 34.8093 129.14 34.8653 128.98 34.8653H126.268C126.092 34.8653 125.948 34.8093 125.836 34.6973C125.724 34.5853 125.668 34.4413 125.668 34.2653V33.4973C125.284 33.9613 124.788 34.3453 124.18 34.6493C123.572 34.9533 122.82 35.1053 121.924 35.1053ZM123.22 31.8893C123.764 31.8893 124.188 31.7773 124.492 31.5533C124.812 31.3133 125.044 31.0093 125.188 30.6413C125.348 30.2733 125.436 29.8733 125.452 29.4413C125.468 29.1213 125.476 28.8173 125.476 28.5293C125.476 28.2413 125.468 27.9453 125.452 27.6413C125.436 27.2413 125.348 26.8733 125.188 26.5373C125.028 26.1853 124.788 25.9053 124.468 25.6973C124.148 25.4733 123.732 25.3613 123.22 25.3613C122.692 25.3613 122.268 25.4733 121.948 25.6973C121.644 25.9213 121.428 26.2253 121.3 26.6093C121.172 26.9933 121.092 27.4173 121.06 27.8813C121.012 28.3773 121.012 28.8733 121.06 29.3693C121.092 29.8333 121.172 30.2573 121.3 30.6413C121.428 31.0253 121.644 31.3293 121.948 31.5533C122.268 31.7773 122.692 31.8893 123.22 31.8893ZM138.528 40.1453C137.296 40.1453 136.272 39.9853 135.456 39.6653C134.656 39.3453 134.016 38.9613 133.536 38.5133C133.072 38.0653 132.736 37.6173 132.528 37.1693C132.32 36.7373 132.208 36.3933 132.192 36.1373C132.176 35.9613 132.232 35.8173 132.36 35.7053C132.488 35.5933 132.64 35.5373 132.816 35.5373H135.864C136.008 35.5373 136.128 35.5693 136.224 35.6333C136.336 35.7133 136.424 35.8413 136.488 36.0173C136.568 36.1933 136.672 36.3773 136.8 36.5693C136.944 36.7613 137.136 36.9133 137.376 37.0253C137.632 37.1533 137.976 37.2173 138.408 37.2173C138.888 37.2173 139.288 37.1373 139.608 36.9773C139.928 36.8333 140.168 36.5853 140.328 36.2333C140.488 35.8973 140.568 35.4413 140.568 34.8653V33.2573C140.2 33.6573 139.728 33.9853 139.152 34.2413C138.576 34.4813 137.88 34.6013 137.064 34.6013C136.248 34.6013 135.528 34.4813 134.904 34.2413C134.28 34.0013 133.76 33.6413 133.344 33.1613C132.928 32.6813 132.6 32.0973 132.36 31.4093C132.136 30.7213 132 29.9293 131.952 29.0333C131.936 28.6173 131.936 28.2013 131.952 27.7853C132 26.9213 132.136 26.1453 132.36 25.4573C132.584 24.7693 132.904 24.1773 133.32 23.6813C133.752 23.1853 134.28 22.8093 134.904 22.5533C135.528 22.2813 136.248 22.1453 137.064 22.1453C137.928 22.1453 138.664 22.3133 139.272 22.6493C139.896 22.9693 140.408 23.3773 140.808 23.8733V22.9853C140.808 22.8253 140.864 22.6893 140.976 22.5773C141.088 22.4493 141.232 22.3853 141.408 22.3853H144.168C144.344 22.3853 144.488 22.4493 144.6 22.5773C144.728 22.6893 144.792 22.8253 144.792 22.9853V34.5293C144.792 35.7453 144.544 36.7693 144.048 37.6013C143.552 38.4333 142.84 39.0653 141.912 39.4973C140.984 39.9293 139.856 40.1453 138.528 40.1453ZM138.36 31.4813C138.872 31.4813 139.288 31.3693 139.608 31.1453C139.928 30.9213 140.16 30.6333 140.304 30.2813C140.464 29.9293 140.552 29.5533 140.568 29.1533C140.584 28.9773 140.592 28.7293 140.592 28.4093C140.592 28.0893 140.584 27.8493 140.568 27.6893C140.552 27.2733 140.464 26.8893 140.304 26.5373C140.16 26.1853 139.928 25.9053 139.608 25.6973C139.288 25.4733 138.872 25.3613 138.36 25.3613C137.832 25.3613 137.408 25.4733 137.088 25.6973C136.784 25.9213 136.56 26.2253 136.416 26.6093C136.288 26.9933 136.208 27.4173 136.176 27.8813C136.16 28.2333 136.16 28.5933 136.176 28.9613C136.208 29.4253 136.288 29.8493 136.416 30.2333C136.56 30.6173 136.784 30.9213 137.088 31.1453C137.408 31.3693 137.832 31.4813 138.36 31.4813ZM153.379 35.1053C151.491 35.1053 149.987 34.5933 148.867 33.5693C147.747 32.5453 147.163 31.0253 147.115 29.0093C147.115 28.8973 147.115 28.7533 147.115 28.5773C147.115 28.4013 147.115 28.2653 147.115 28.1693C147.163 26.9053 147.443 25.8253 147.955 24.9293C148.483 24.0173 149.203 23.3293 150.115 22.8653C151.043 22.3853 152.123 22.1453 153.355 22.1453C154.763 22.1453 155.923 22.4253 156.835 22.9853C157.763 23.5453 158.459 24.3053 158.923 25.2653C159.387 26.2253 159.619 27.3213 159.619 28.5533V29.1293C159.619 29.3053 159.555 29.4493 159.427 29.5613C159.315 29.6733 159.179 29.7293 159.019 29.7293H151.339C151.339 29.7453 151.339 29.7693 151.339 29.8013C151.339 29.8333 151.339 29.8653 151.339 29.8973C151.355 30.3613 151.435 30.7853 151.579 31.1693C151.723 31.5533 151.947 31.8573 152.251 32.0813C152.555 32.3053 152.923 32.4173 153.355 32.4173C153.675 32.4173 153.939 32.3693 154.147 32.2733C154.371 32.1613 154.555 32.0413 154.699 31.9133C154.843 31.7693 154.955 31.6493 155.035 31.5533C155.179 31.3933 155.291 31.2973 155.371 31.2653C155.467 31.2173 155.611 31.1933 155.803 31.1933H158.779C158.939 31.1933 159.067 31.2413 159.163 31.3373C159.275 31.4173 159.323 31.5373 159.307 31.6973C159.291 31.9693 159.155 32.2973 158.899 32.6813C158.643 33.0653 158.267 33.4493 157.771 33.8333C157.291 34.2013 156.683 34.5053 155.947 34.7453C155.211 34.9853 154.355 35.1053 153.379 35.1053ZM151.339 27.3533H155.395V27.3053C155.395 26.7933 155.315 26.3453 155.155 25.9613C155.011 25.5773 154.779 25.2813 154.459 25.0733C154.155 24.8653 153.787 24.7613 153.355 24.7613C152.923 24.7613 152.555 24.8653 152.251 25.0733C151.963 25.2813 151.739 25.5773 151.579 25.9613C151.419 26.3453 151.339 26.7933 151.339 27.3053V27.3533ZM165.673 34.8653C165.545 34.8653 165.425 34.8173 165.313 34.7213C165.217 34.6093 165.169 34.4893 165.169 34.3613C165.169 34.2813 165.177 34.2093 165.193 34.1453L170.833 18.7373C170.881 18.5613 170.977 18.4093 171.121 18.2813C171.281 18.1373 171.497 18.0653 171.769 18.0653H175.321C175.593 18.0653 175.801 18.1373 175.945 18.2813C176.105 18.4093 176.209 18.5613 176.257 18.7373L181.873 34.1453C181.905 34.2093 181.921 34.2813 181.921 34.3613C181.921 34.4893 181.865 34.6093 181.753 34.7213C181.657 34.8173 181.537 34.8653 181.393 34.8653H178.441C178.201 34.8653 178.017 34.8093 177.889 34.6973C177.777 34.5693 177.705 34.4573 177.673 34.3613L176.737 31.9133H170.329L169.417 34.3613C169.385 34.4573 169.313 34.5693 169.201 34.6973C169.089 34.8093 168.897 34.8653 168.625 34.8653H165.673ZM171.313 28.4573H175.777L173.521 22.1213L171.313 28.4573ZM184.413 34.8653C184.237 34.8653 184.093 34.8093 183.981 34.6973C183.869 34.5853 183.813 34.4413 183.813 34.2653V18.6653C183.813 18.4893 183.869 18.3453 183.981 18.2333C184.093 18.1213 184.237 18.0653 184.413 18.0653H187.629C187.805 18.0653 187.949 18.1213 188.061 18.2333C188.173 18.3453 188.229 18.4893 188.229 18.6653V34.2653C188.229 34.4413 188.173 34.5853 188.061 34.6973C187.949 34.8093 187.805 34.8653 187.629 34.8653H184.413Z" fill="#343A40"/>
<circle cx="90.8889" cy="10.4022" r="3.88889" fill="#447DEA"/>
<circle cx="153.111" cy="10.4022" r="3.88889" fill="#447DEA"/>
<path d="M95.604 7.86883L99.4973 6.16781C105.304 3.63086 111.494 2.08461 117.812 1.59324V1.59324C120.745 1.3651 123.691 1.36546 126.624 1.59432L126.991 1.62297C133.55 2.13469 139.983 3.69602 146.047 6.24733L148.704 7.36545" stroke="#447DEA" stroke-width="2"/>
</svg>

